
<svg xmlns="http://www.w3.org/2000/svg" fill="none" viewBox="0 0 350 24"><path fill="#000" d="M9.386 5.612h8.873L19.092.52H3.62L0 23.42h6.6l1.249-8.1h7.112l.768-4.837H8.618l.768-4.87Zm28.755 1.41c.033-4.037-2.819-6.5-8.393-6.5H21.04l-3.62 22.9h6.535l1.281-8.2h1.538l3.748 8.2h6.663l-4.325-9.45a6.72 6.72 0 0 0 5.28-6.95h.001Zm-9.9 3.94H25.94l.865-5.51h2.082c1.89 0 2.883.77 2.851 2.37-.004 2.178-1.285 3.14-3.498 3.14h.001ZM52.061.198c-7.688 0-13.1 5.638-13.1 13.582 0 6.407 5 10.027 11.084 10.027 7.88 0 13.262-5.51 13.262-13.486C63.306 3.786 58.405.198 52.063.198h-.002Zm-1.57 18.452c-3.107 0-4.709-2.083-4.709-5.126 0-4.26 2.083-8.233 6.087-8.2 3.2.032 4.612 2.338 4.612 5.221.002 4.196-2.016 8.105-5.988 8.105h-.002Zm28.666-5.254L74.064.518h-7.5l-3.62 22.9h5.862l2.243-14.382 5.958 14.382h6.406l2.82-17.842h6.646l-2.787 17.842h6.6l2.787-17.842h5.926l.833-5.062H81.209l-2.052 12.882Zm44.226-13.2c-7.688 0-13.1 5.638-13.1 13.582 0 6.407 5 10.027 11.083 10.027 7.88 0 13.262-5.51 13.262-13.486.001-6.533-4.9-10.12-11.243-10.12l-.002-.003Zm-1.569 18.452c-3.108 0-4.709-2.083-4.709-5.126 0-4.26 2.082-8.233 6.087-8.2 3.2.032 4.613 2.338 4.613 5.221.001 4.198-2.017 8.107-5.989 8.107l-.002-.002ZM144.451 5.61h8.873l.833-5.093h-15.47l-3.619 22.9h6.6l1.25-8.1h7.112l.769-4.837h-7.112l.764-4.87Zm17.417 0h8.872l.833-5.093h-15.469l-3.62 22.9h6.6l1.249-8.1h7.107l.769-4.837h-7.111l.77-4.87Zm8.09 17.81h6.63l3.621-22.9h-6.629l-3.622 22.9Zm23.324-18.13c2.339 0 3.427 1.313 3.652 3.683h6.6c-.224-5.895-4.1-8.809-10.058-8.809-7.945 0-12.814 5.733-12.814 13.55 0 6.63 4.421 10.09 11.18 10.09 5.574 0 10.187-3.043 11.116-9h-6.5c-.641 2.5-2.274 3.811-4.549 3.811-3.139 0-4.388-2.21-4.388-5.158.062-4.385 1.952-8.165 5.763-8.165l-.002-.003Zm10.523 18.13h16.335l.8-5.06h-9.8l.672-4.23h7.4l.705-4.612h-7.368l.609-3.94h9.257l.8-5.062h-15.792l-3.618 22.904Zm35.813-14.382c-2.531-.545-3.236-1.025-3.236-2.083 0-1.249.865-2.083 2.658-2.083 1.73 0 2.755.737 2.884 2.467h5.99c.032-4.9-3.267-7.143-8.681-7.143-5.83 0-9.193 3.3-9.193 7.592 0 3.812 2.017 5.606 7.592 6.791 2.435.513 3.235 1.09 3.235 2.211 0 1.505-1.025 2.37-3.011 2.34-2.626 0-3.555-1.41-3.62-2.98h-6.183c-.032 4.772 3.428 7.655 9.642 7.655 6.247-.032 9.611-3.3 9.611-7.976.002-3.937-2.529-5.669-7.686-6.789l-.002-.002Zm19.987-8.52h-8.233l-3.619 22.9h6.6l1.218-7.753h2.915c5.767 0 9.611-2.915 9.611-8.617-.032-4.03-3.011-6.53-8.489-6.53h-.003Zm-1.378 10.7h-1.987l.9-5.83h1.762c1.954 0 2.947.832 2.947 2.4.001 2.244-1.28 3.43-3.619 3.43h-.003ZM281.451.197c-7.687 0-13.1 5.637-13.1 13.581 0 6.407 5 10.027 11.084 10.027 7.88 0 13.261-5.51 13.261-13.486.002-6.534-4.899-10.122-11.242-10.122h-.003Zm-1.569 18.451c-3.107 0-4.709-2.083-4.709-5.126 0-4.26 2.082-8.233 6.086-8.2 3.2.032 4.613 2.338 4.613 5.221.003 4.197-2.015 8.106-5.987 8.106h-.003ZM313.063 7.02c.033-4.036-2.819-6.5-8.392-6.5h-8.713l-3.62 22.9h6.535l1.281-8.2h1.538l3.747 8.2h6.663l-4.324-9.45a6.72 6.72 0 0 0 5.288-6.949h-.003Zm-9.9 3.941h-2.306l.865-5.51h2.082c1.89 0 2.883.77 2.851 2.37.005 2.18-1.277 3.141-3.487 3.141h-.005Zm38.535-1.922c-2.531-.545-3.236-1.025-3.236-2.083 0-1.249.865-2.083 2.659-2.083 1.729 0 2.754.737 2.883 2.467h5.99c.032-4.9-3.268-7.143-8.681-7.143-.991-.006-1.98.102-2.947.32h-23.854l-.833 5.062h5.926l-2.787 17.842h6.6l2.786-17.842h6.242a7.522 7.522 0 0 0-.327 2.21c0 3.812 2.017 5.606 7.592 6.791 2.435.513 3.235 1.09 3.235 2.211 0 1.505-1.025 2.37-3.011 2.34-2.626 0-3.555-1.41-3.619-2.98h-6.176c-.032 4.772 3.428 7.655 9.642 7.655 6.247-.032 9.611-3.3 9.611-7.976-.002-3.938-2.533-5.67-7.69-6.79h-.005Z"/></svg>